<svg xmlns="http://www.w3.org/2000/svg" width="265.014" height="63.08" viewBox="0 0 70.118 16.69"><path style="fill:#d3000e;fill-opacity:1;stroke:#d3000e;stroke-width:.26458332px;stroke-linecap:butt;stroke-linejoin:miter;stroke-opacity:1" d="M64.413 16.556s-4.416 4.24-6.212 7.323c-2.003 3.438 2.467 8.006 5.315 3.898.201-.29.541-.235.567-.047.356 2.626-2.599 4.3-2.599 4.3h5.93s-2.75-1.567-2.575-4.276c.01-.15.345-.108.449 0 3.9 4.046 7.178-.45 5.315-4.017-1.64-3.141-6.19-7.181-6.19-7.181zm.065 3.253.81 2.64 2.781.024-2.23 1.671.827 2.53-2.188-1.57-2.247 1.553.869-2.555-2.264-1.637 2.782-.008z" transform="translate(-57.568 -16.26)"/><text xml:space="preserve" style="font-style:normal;font-weight:400;font-size:10.58333302px;line-height:1.25;font-family:sans-serif;letter-spacing:0;word-spacing:0;fill:#000;fill-opacity:1;stroke:none;stroke-width:.26458332" x="34.344" y="28.127" transform="translate(-57.568 -16.26)"/><text xml:space="preserve" style="font-style:normal;font-weight:400;font-size:10.52331257px;line-height:1.25;font-family:sans-serif;letter-spacing:0;word-spacing:0;fill:#000;fill-opacity:1;stroke:none;stroke-width:.26308283" x="6.118" y="26.574" transform="matrix(.987 0 0 1.01317 -57.568 -16.26)"/><path style="fill:#fff;fill-opacity:1;stroke:#fff;stroke-width:.26458332px;stroke-linecap:butt;stroke-linejoin:miter;stroke-opacity:1" d="m82.818 17.008.019 2.028s-5.123-3.571-6.414 1.203c.244 2.247 4.636 2.976 5.822 3.99 0 0 5.777 5.688-2.49 8.33-4.937.137-6.122-1.094-6.122-1.094l.017-2.055s6.334 4.22 8.006-.447c.234-3.158-5.534-4.342-6.09-5.27-.987-.308-4.324-5.764 2.81-7.3 4.017-.046 4.442.615 4.442.615zM87.782 17.935l2.599-1.252.094 4.182 3.378.023-.047.969-3.378-.024-.07 8.505s-.166 1.724 3.047 1.04l.141 1.18s-5.598 1.418-5.717-2.527c-.118-3.945 0-8.15 0-8.15l-1.984-.024-.047-.921h2.031zM111.174 17.935l2.598-1.252.095 4.182 3.378.023-.047.969-3.378-.024-.071 8.505s-.166 1.724 3.047 1.04l.142 1.18s-5.599 1.418-5.717-2.527c-.118-3.945 0-8.15 0-8.15l-1.984-.024-.048-.921h2.032zM101.476 20.726c-.2 0-.415.002-.644.006-3.675.067-3.91 3.34-3.91 3.34h2.707s-.088-1.524 1.002-2.272c1.502-.687 2.766.268 2.79 1.254.023.996 0 2.12 0 2.12s-7.714.85-6.649 5.697c2.957 4.037 6.649.552 6.649.552l.083 1.135 2.489-.017-.017-8.586s-.43-2.076-.868-2.355c-.735-.36-.62-.867-3.631-.874zm1.995 5.318-.017 3.54c-.038.833-2.188 3.442-3.858.903-.836-3.809 3.875-4.443 3.875-4.443z" transform="translate(-57.568 -16.26)"/><path style="fill:#fff;fill-opacity:1;stroke:#fff;stroke-width:.18940534px;stroke-linecap:butt;stroke-linejoin:miter;stroke-opacity:1" d="m126.597 21.426.014 1.453s-3.668-2.557-4.592.86c.175 1.609 3.32 2.131 4.168 2.856 0 0 4.135 4.072-1.783 5.963-3.534.099-4.382-.783-4.382-.783l.012-1.47s4.534 3.02 5.731-.32c.168-2.261-3.961-3.109-4.36-3.773-.706-.22-3.095-4.126 2.013-5.225 2.874-.034 3.179.44 3.179.44z" transform="translate(-57.568 -16.26)"/></svg>